HIERARCHY
ROOT Hips
{
	OFFSET 0.000000 35.082581 0.000000
	CHANNELS 6 Xposition Yposition Zposition Xrotation Yrotation Zrotation 
	JOINT Spine
	{
		OFFSET 0.000000 6.876099 0.125700
		CHANNELS 3 Xrotation Yrotation Zrotation
		JOINT Spine1
		{
			OFFSET 0.000000 5.730043 0.104720
			CHANNELS 3 Xrotation Yrotation Zrotation
			JOINT Spine1_split
			{
				OFFSET 0.000000 5.730043 0.104720
				CHANNELS 3 Xrotation Yrotation Zrotation
				JOINT Spine2
				{
					OFFSET 0.000000 5.730043 0.104720
					CHANNELS 3 Xrotation Yrotation Zrotation
					JOINT Neck
					{
						OFFSET 0.000000 10.314075 0.188496
						CHANNELS 3 Xrotation Yrotation Zrotation
						JOINT Head
						{
							OFFSET 0.000000 7.643700 -2.377400
							CHANNELS 3 Xrotation Yrotation Zrotation
							JOINT HeadTop_End
							{
								OFFSET 0.000000 43.788605 -13.619600
								CHANNELS 3 Xrotation Yrotation Zrotation
								End Site
								{
									OFFSET 0.000000 0.000000 0.000000
								}
							}
						}
					}
					JOINT LeftShoulder
					{
						OFFSET 2.196100 4.412489 0.087492
						CHANNELS 3 Xrotation Yrotation Zrotation
						JOINT LeftShoulder_split
						{
							OFFSET 2.196100 4.412489 0.087492
							CHANNELS 3 Xrotation Yrotation Zrotation
							JOINT LeftArm
							{
								OFFSET 8.771219 -2.981674 -0.026999
								CHANNELS 3 Xrotation Yrotation Zrotation
								JOINT LeftForeArm
								{
									OFFSET 8.512804 0.000000 -0.000000
									CHANNELS 3 Xrotation Yrotation Zrotation
									JOINT LeftHand
									{
										OFFSET 18.484802 0.000000 -0.000000
										CHANNELS 3 Xrotation Yrotation Zrotation
										JOINT LeftHandThumb1
										{
											OFFSET 2.499420 -1.158070 2.653252
											CHANNELS 3 Xrotation Yrotation Zrotation
											JOINT LeftHandThumb2
											{
												OFFSET 2.370079 -1.368366 1.368366
												CHANNELS 3 Xrotation Yrotation Zrotation
												JOINT LeftHandThumb3
												{
													OFFSET 2.676727 -1.545410 1.545409
													CHANNELS 3 Xrotation Yrotation Zrotation
													JOINT LeftHandThumb4
													{
														OFFSET 1.692226 -0.977005 0.977007
														CHANNELS 3 Xrotation Yrotation Zrotation
														End Site
														{
															OFFSET 0.000000 0.000000 0.000000
														}
													}
												}
											}
										}
										JOINT LeftHandIndex1
										{
											OFFSET 7.924831 -0.457527 2.345128
											CHANNELS 3 Xrotation Yrotation Zrotation
											JOINT LeftHandIndex2
											{
												OFFSET 3.643303 0.000000 0.000000
												CHANNELS 3 Xrotation Yrotation Zrotation
												JOINT LeftHandIndex3
												{
													OFFSET 3.810799 0.000000 0.000000
													CHANNELS 3 Xrotation Yrotation Zrotation
													JOINT LeftHandIndex4
													{
														OFFSET 2.403702 0.000000 0.000000
														CHANNELS 3 Xrotation Yrotation Zrotation
														End Site
														{
															OFFSET 0.000000 0.000000 0.000000
														}
													}
												}
											}
										}
										JOINT LeftHandMiddle1
										{
											OFFSET 8.563995 0.000000 -0.000000
											CHANNELS 3 Xrotation Yrotation Zrotation
											JOINT LeftHandMiddle2
											{
												OFFSET 3.861618 0.000000 0.000000
												CHANNELS 3 Xrotation Yrotation Zrotation
												JOINT LeftHandMiddle3
												{
													OFFSET 3.701603 0.000000 0.000000
													CHANNELS 3 Xrotation Yrotation Zrotation
													JOINT LeftHandMiddle4
													{
														OFFSET 2.322544 0.000000 0.000000
														CHANNELS 3 Xrotation Yrotation Zrotation
														End Site
														{
															OFFSET 0.000000 0.000000 0.000000
														}
													}
												}
											}
										}
										JOINT LeftHandRing1
										{
											OFFSET 8.426460 -0.424637 -3.286992
											CHANNELS 3 Xrotation Yrotation Zrotation
											JOINT LeftHandRing2
											{
												OFFSET 3.126408 0.000000 0.000000
												CHANNELS 3 Xrotation Yrotation Zrotation
												JOINT LeftHandRing3
												{
													OFFSET 3.085026 0.000000 0.000000
													CHANNELS 3 Xrotation Yrotation Zrotation
													JOINT LeftHandRing4
													{
														OFFSET 1.644005 0.000000 0.000000
														CHANNELS 3 Xrotation Yrotation Zrotation
														End Site
														{
															OFFSET 0.000000 0.000000 0.000000
														}
													}
												}
											}
										}
									}
								}
							}
						}
					}
					JOINT RightShoulder
					{
						OFFSET -2.196100 4.412496 0.070690
						CHANNELS 3 Xrotation Yrotation Zrotation
						JOINT RightShoulder_split
						{
							OFFSET -2.196100 4.412496 0.070690
							CHANNELS 3 Xrotation Yrotation Zrotation
							JOINT RightArm
							{
								OFFSET -8.771282 -2.981682 -0.094208
								CHANNELS 3 Xrotation Yrotation Zrotation
								JOINT RightForeArm
								{
									OFFSET -8.494598 0.000000 0.000000
									CHANNELS 3 Xrotation Yrotation Zrotation
									JOINT RightHand
									{
										OFFSET -18.483803 0.000000 0.000001
										CHANNELS 3 Xrotation Yrotation Zrotation
										JOINT RightHandThumb1
										{
											OFFSET -2.527351 -1.008072 2.575253
											CHANNELS 3 Xrotation Yrotation Zrotation
											JOINT RightHandThumb2
											{
												OFFSET -2.321518 -1.340328 1.340329
												CHANNELS 3 Xrotation Yrotation Zrotation
												JOINT RightHandThumb3
												{
													OFFSET -2.657753 -1.534454 1.534455
													CHANNELS 3 Xrotation Yrotation Zrotation
													JOINT RightHandThumb4
													{
														OFFSET -1.807510 -1.043568 1.043567
														CHANNELS 3 Xrotation Yrotation Zrotation
														End Site
														{
															OFFSET 0.000000 0.000000 0.000000
														}
													}
												}
											}
										}
										JOINT RightHandIndex1
										{
											OFFSET -8.811420 0.015533 2.887987
											CHANNELS 3 Xrotation Yrotation Zrotation
											JOINT RightHandIndex2
											{
												OFFSET -3.537502 0.000000 0.000000
												CHANNELS 3 Xrotation Yrotation Zrotation
												JOINT RightHandIndex3
												{
													OFFSET -3.356201 0.000000 0.000000
													CHANNELS 3 Xrotation Yrotation Zrotation
													JOINT RightHandIndex4
													{
														OFFSET -1.933098 0.000000 0.000000
														CHANNELS 3 Xrotation Yrotation Zrotation
														End Site
														{
															OFFSET 0.000000 0.000000 0.000000
														}
													}
												}
											}
										}
										JOINT RightHandMiddle1
										{
											OFFSET -8.178135 0.000000 0.000000
											CHANNELS 3 Xrotation Yrotation Zrotation
											JOINT RightHandMiddle2
											{
												OFFSET -3.901302 0.000000 0.000000
												CHANNELS 3 Xrotation Yrotation Zrotation
												JOINT RightHandMiddle3
												{
													OFFSET -3.909599 0.000000 0.000000
													CHANNELS 3 Xrotation Yrotation Zrotation
													JOINT RightHandMiddle4
													{
														OFFSET -2.376003 0.000000 0.000000
														CHANNELS 3 Xrotation Yrotation Zrotation
														End Site
														{
															OFFSET 0.000000 0.000000 0.000000
														}
													}
												}
											}
										}
										JOINT RightHandRing1
										{
											OFFSET -7.559013 0.014137 -2.865403
											CHANNELS 3 Xrotation Yrotation Zrotation
											JOINT RightHandRing2
											{
												OFFSET -3.449306 0.000000 0.000000
												CHANNELS 3 Xrotation Yrotation Zrotation
												JOINT RightHandRing3
												{
													OFFSET -3.362106 0.000000 0.000000
													CHANNELS 3 Xrotation Yrotation Zrotation
													JOINT RightHandRing4
													{
														OFFSET -2.076401 0.000000 0.000000
														CHANNELS 3 Xrotation Yrotation Zrotation
														End Site
														{
															OFFSET 0.000000 0.000000 0.000000
														}
													}
												}
											}
										}
									}
								}
							}
						}
					}
				}
			}
		}
	}
	JOINT LeftUpLeg
	{
		OFFSET 10.205400 -3.823500 0.155100
		CHANNELS 3 Xrotation Yrotation Zrotation
		JOINT LeftLeg
		{
			OFFSET 0.708757 -12.982077 0.567790
			CHANNELS 3 Xrotation Yrotation Zrotation
			JOINT LeftFoot
			{
				OFFSET -0.708756 -10.717838 -2.184338
				CHANNELS 3 Xrotation Yrotation Zrotation
				JOINT LeftToeBase
				{
					OFFSET 0.108149 -7.191104 7.560241
					CHANNELS 3 Xrotation Yrotation Zrotation
					JOINT LeftToe_End
					{
						OFFSET 0.070230 0.081724 4.490308
						CHANNELS 3 Xrotation Yrotation Zrotation
						End Site
						{
							OFFSET 0.000000 0.000000 0.000000
						}
					}
				}
			}
		}
	}
	JOINT RightUpLeg
	{
		OFFSET -10.205400 -3.823500 0.005500
		CHANNELS 3 Xrotation Yrotation Zrotation
		JOINT RightLeg
		{
			OFFSET -0.708756 -12.982134 0.610632
			CHANNELS 3 Xrotation Yrotation Zrotation
			JOINT RightFoot
			{
				OFFSET 0.708754 -10.717769 -1.945823
				CHANNELS 3 Xrotation Yrotation Zrotation
				JOINT RightToeBase
				{
					OFFSET -0.108140 -7.191069 7.372968
					CHANNELS 3 Xrotation Yrotation Zrotation
					JOINT RightToe_End
					{
						OFFSET -0.070227 0.081735 4.479403
						CHANNELS 3 Xrotation Yrotation Zrotation
						End Site
						{
							OFFSET 0.000000 0.000000 0.000000
						}
					}
				}
			}
		}
	}
}
MOTION
Frames: 4
Frame Time: 0.016667
0.377582 32.885067 -0.202201 2.378740 -11.965678 -0.428261 9.427631 1.970204 0.351455 2.870544 4.029878 0.917350 0.000000 0.000000 0.000000 -9.001471 3.754920 1.727677 -3.884244 2.070162 -6.983152 5.913063 -0.105761 7.514577 -0.000000 -0.000000 0.000000 -1.295773 0.077923 -4.827872 0.000000 0.000000 0.000000 -3.652872 -0.069585 -73.007031 -0.000046 -15.717671 -0.000375 2.306650 0.164984 -5.013137 8.265292 -7.734452 18.880830 5.407289 20.572721 -9.835077 1.742540 3.611559 -0.678878 -0.000003 -0.000000 -0.000004 0.273670 -4.246507 -3.910695 0.097425 -0.794739 -17.447635 -0.022283 -0.374345 -8.071639 0.000000 0.000002 0.000000 0.248931 -1.909202 -12.464976 -0.126927 -0.878903 -17.469112 -0.119952 -0.934111 -18.480088 0.000001 -0.000000 0.000001 0.311246 -1.760775 -17.977492 -0.194367 -1.090511 -20.983234 -0.031945 -0.974391 -17.928731 0.000000 -0.000000 0.000001 -1.295765 -0.077822 4.827402 0.000000 0.000000 0.000000 3.909182 3.069893 67.997757 -0.000020 18.089264 0.000016 2.313891 -1.592969 -2.170072 8.265272 7.734453 -18.880810 5.407334 -20.572689 9.835185 1.742521 -3.611576 0.678885 0.000002 -0.000004 0.000001 0.272415 4.252691 3.917174 0.097374 0.794934 17.452779 -0.022360 0.374607 8.076840 -0.000000 0.000000 -0.000001 0.250210 1.903645 12.463717 -0.126976 0.878938 17.470154 -0.119966 0.934160 18.481186 -0.000000 0.000001 -0.000003 0.310434 1.762610 17.988982 -0.194378 1.090569 20.984713 -0.031862 0.974273 17.926166 0.000001 -0.000001 -0.000000 -20.539571 10.090682 19.064188 32.756634 1.844223 0.164871 -11.804659 8.270981 -14.865253 -3.075514 -2.348369 -2.459377 0.000000 -0.000000 0.000000 -11.483059 -7.211805 -11.888290 29.522806 -2.719479 -0.613152 -18.871401 -3.315226 13.025667 -5.415669 2.348587 2.459591 0.000000 0.000003 0.000000 
0.391757 32.883102 -0.191039 2.551405 -12.047191 -0.438263 9.402994 1.887550 0.369542 2.806022 4.034562 0.910477 0.000000 0.000000 0.000000 -9.063597 3.756302 1.734031 -4.162334 1.706294 -7.754407 6.269309 -1.220015 8.671235 -0.000001 -0.000000 -0.000001 -1.298123 0.155725 -4.849245 0.000000 0.000000 0.000000 -3.189661 0.061119 -72.936762 -0.000032 -16.015506 -0.000212 3.331700 -0.184964 -5.638284 8.273782 -7.737134 18.864352 5.390308 20.552451 -9.830148 1.742502 3.611564 -0.678857 -0.000003 0.000003 -0.000000 0.270694 -4.248327 -3.950671 0.097112 -0.795835 -17.472114 -0.022406 -0.375025 -8.086789 0.000001 -0.000001 -0.000001 0.246375 -1.912587 -12.540562 -0.127546 -0.880738 -17.507081 -0.120410 -0.935554 -18.509592 0.000000 -0.000001 -0.000000 0.308629 -1.764631 -18.061523 -0.195021 -1.092078 -21.014969 -0.032750 -0.976941 -17.977048 -0.000001 -0.000001 -0.000002 -1.275737 -0.132162 4.800560 0.000000 0.000000 0.000000 4.101214 3.268608 67.974500 0.000936 18.208675 -0.000186 2.345977 -1.166095 -2.036997 8.265272 7.734458 -18.880810 5.407333 -20.572692 9.835185 1.742519 -3.611572 0.678888 -0.000001 0.000003 0.000003 0.272070 4.256431 3.991441 0.096754 0.796870 17.496452 -0.022566 0.376383 8.115634 -0.000000 -0.000000 0.000000 0.248828 1.912054 12.629774 -0.128497 0.883664 17.567539 -0.121153 0.937816 18.556586 0.000000 0.000000 0.000000 0.304029 1.771981 18.193780 -0.195446 1.093394 21.041602 -0.033969 0.980786 18.050045 -0.000001 -0.000000 -0.000002 -20.721368 10.045401 19.082092 32.913220 1.892462 0.179672 -11.925203 8.339423 -14.878114 -3.075561 -2.348360 -2.459380 0.000000 -0.000000 0.000000 -11.669751 -7.202334 -11.870225 29.430780 -2.688977 -0.610957 -18.767253 -3.270714 13.037371 -5.415672 2.348623 2.459596 -0.000000 -0.000000 0.000000 
0.431663 32.877842 -0.180612 2.725746 -12.099862 -0.448019 9.399814 1.786276 0.409579 2.763058 4.049150 0.909947 0.000000 0.000000 0.000000 -9.100127 3.757395 1.768803 -4.412550 1.409383 -8.672615 6.710947 -2.881740 10.234381 -0.000000 -0.000000 -0.000000 -1.303889 0.333872 -4.902610 0.000000 0.000000 0.000000 -3.050628 0.056953 -72.883350 -0.000008 -15.382371 -0.000244 4.405421 -1.213635 -6.241236 8.292441 -7.742959 18.828422 5.350608 20.509294 -9.813145 1.742501 3.611567 -0.678855 -0.000004 0.000004 -0.000000 0.264217 -4.252226 -4.038103 0.096370 -0.798202 -17.525695 -0.022636 -0.376568 -8.119954 0.000000 0.000001 0.000000 0.240810 -1.919968 -12.705958 -0.128851 -0.884774 -17.590379 -0.121458 -0.938702 -18.574051 0.000001 0.000001 0.000003 0.302889 -1.773009 -18.245324 -0.196341 -1.095553 -21.084504 -0.034547 -0.982486 -18.082910 -0.000001 0.000001 -0.000001 -1.219715 -0.284598 4.724199 0.000000 0.000000 0.000000 4.623787 3.807455 67.911799 0.003486 18.543431 -0.000425 2.401655 -0.735412 -1.898776 8.265272 7.734446 -18.880810 5.407333 -20.572694 9.835186 1.742520 -3.611575 0.678885 -0.000001 -0.000001 0.000002 0.271342 4.264622 4.154763 0.095371 0.801139 17.592650 -0.023141 0.380246 8.199586 -0.000001 0.000001 0.000002 0.245839 1.930346 12.992154 -0.131771 0.893964 17.778836 -0.123865 0.945790 18.720264 -0.000002 -0.000002 -0.000002 0.296095 1.794271 18.638686 -0.197849 1.099618 21.166811 -0.038635 0.994844 18.318740 0.000000 -0.000000 -0.000001 -20.981098 9.998155 19.037940 33.187930 1.934326 0.214453 -12.110529 8.396735 -14.831624 -3.075529 -2.348335 -2.459357 0.000000 0.000000 0.000000 -11.857095 -7.182498 -11.913418 29.324881 -2.666712 -0.607414 -18.635915 -3.244799 13.111908 -5.415649 2.348597 2.459595 0.000000 0.000003 0.000000 
0.494570 32.869652 -0.170697 2.901033 -12.136030 -0.457522 9.418594 1.672150 0.464815 2.745822 4.068234 0.905524 0.000000 0.000000 0.000000 -9.107700 3.755928 1.814801 -4.798414 1.136500 -9.430945 7.361173 -4.778217 11.803091 -0.000000 -0.000001 -0.000000 -1.311608 0.529207 -4.962626 0.000000 0.000000 0.000000 -2.922625 0.021933 -72.895672 0.000045 -14.822135 -0.000255 5.162989 -2.007071 -6.577208 8.316504 -7.750547 18.781903 5.299046 20.453575 -9.790642 1.742519 3.611557 -0.678883 0.000000 0.000004 -0.000000 0.255911 -4.257258 -4.150992 0.095351 -0.801279 -17.594991 -0.022898 -0.378539 -8.162722 -0.000001 -0.000000 0.000001 0.237199 -1.930316 -12.919518 -0.130465 -0.890002 -17.697797 -0.122860 -0.942753 -18.657321 0.000002 -0.000000 0.000000 0.295431 -1.783787 -18.482719 -0.197994 -1.100013 -21.174401 -0.036913 -0.989664 -18.219591 -0.000001 -0.000000 0.000001 -1.134007 -0.519533 4.607166 0.000000 0.000000 0.000000 5.397552 4.600129 67.820411 0.007703 19.058808 -0.000964 2.479776 -0.301318 -1.755875 8.265272 7.734448 -18.880811 5.407333 -20.572690 9.835184 1.742523 -3.611568 0.678886 -0.000001 -0.000000 0.000001 0.270309 4.275210 4.365240 0.093650 0.806659 17.716785 -0.023889 0.385207 8.307190 -0.000002 0.000001 0.000001 0.241728 1.953907 13.457423 -0.135970 0.907066 18.049154 -0.127371 0.956041 18.929716 -0.000002 0.000000 -0.000000 0.286107 1.822936 19.208672 -0.200981 1.107612 21.328434 -0.044615 1.012875 18.662650 0.000001 0.000001 0.000001 -21.301345 9.952183 18.939823 33.563232 1.974341 0.264828 -12.355214 8.448310 -14.733966 -3.075564 -2.348362 -2.459379 -0.000000 -0.000001 0.000000 -12.049875 -7.151964 -12.013469 29.206036 -2.646447 -0.600918 -18.476287 -3.230784 13.240360 -5.415685 2.348578 2.459602 0.000000 0.000003 0.000000 
